<?xml version="1.0" encoding="iso-8859-1"?>
<!-- Generator: Adobe Illustrator 19.0.0, SVG Export Plug-In . SVG Version: 6.00 Build 0)  -->
<svg version="1.1" id="Layer_1" xmlns="http://www.w3.org/2000/svg" xmlns:xlink="http://www.w3.org/1999/xlink" x="0px" y="0px"
	 viewBox="0 0 512 512" style="enable-background:new 0 0 512 512;" xml:space="preserve">
<path style="fill:#FFFFFF;" d="M298.464,54.972c0-23.452-19.011-42.464-42.464-42.464c-23.452,0-42.464,19.011-42.464,42.464V186.35
	h84.927V54.972H298.464z"/>
<path style="fill:#FF7876;" d="M298.464,358.076V186.348h-84.927v171.727c-20.857,13.796-34.623,37.449-34.623,64.33
	c0,42.574,34.512,77.087,77.087,77.087s77.087-34.512,77.087-77.087C333.087,395.526,319.321,371.872,298.464,358.076z"/>
<g>
	<path style="fill:#58595B;" d="M310.972,351.666c0-10.297,0-286.396,0-296.693C310.972,24.661,286.311,0,256,0
		s-54.972,24.661-54.972,54.972c0,10.305,0,286.4,0,296.693c-21.798,16.933-34.623,42.898-34.623,70.739
		C166.405,471.807,206.598,512,256,512s89.595-40.193,89.595-89.595C345.595,394.564,332.77,368.6,310.972,351.666z M226.044,54.972
		c0-16.517,13.439-29.956,29.956-29.956s29.956,13.439,29.956,29.956V86.92h-25.795c-6.91,0-12.508,5.599-12.508,12.508
		s5.599,12.508,12.508,12.508h25.795v12.975h-25.795c-6.91,0-12.508,5.599-12.508,12.508s5.599,12.508,12.508,12.508h25.795v23.912
		h-59.912L226.044,54.972L226.044,54.972z M256,486.984c-35.61,0-64.579-28.969-64.579-64.579c0-21.731,10.847-41.881,29.014-53.898
		c3.502-2.317,5.607-6.232,5.607-10.432V198.856h59.912v159.219c0,4.199,2.106,8.115,5.607,10.432
		c18.168,12.018,29.014,32.168,29.014,53.898C320.579,458.015,291.61,486.984,256,486.984z"/>
	<path style="fill:#58595B;" d="M293.001,409.897c-6.91,0-12.508,5.599-12.508,12.508c0,13.505-10.987,24.493-24.493,24.493
		c-6.91,0-12.508,5.599-12.508,12.508s5.599,12.508,12.508,12.508c27.299,0,49.509-22.208,49.509-49.509
		C305.509,415.497,299.909,409.897,293.001,409.897z"/>
</g>
<g>
</g>
<g>
</g>
<g>
</g>
<g>
</g>
<g>
</g>
<g>
</g>
<g>
</g>
<g>
</g>
<g>
</g>
<g>
</g>
<g>
</g>
<g>
</g>
<g>
</g>
<g>
</g>
<g>
</g>
</svg>
